<svg height="21.75" viewBox="0 0 25.07 21.75" width="25.07" xmlns="http://www.w3.org/2000/svg"><g fill="#273c4d"><path d="m12.53 21.75a1.14 1.14 0 0 1 -.8-.34l-3.94-3.94h-6.65a1.14 1.14 0 0 1 -1.14-1.14v-15.19a1.14 1.14 0 0 1 1.14-1.14h22.79a1.14 1.14 0 0 1 1.14 1.14v15.19a1.14 1.14 0 0 1 -1.14 1.14h-6.65l-3.94 3.94a1.14 1.14 0 0 1 -.81.34zm-10.25-6.56h6a1.14 1.14 0 0 1 .81.34l3.44 3.47 3.47-3.47a1.1 1.1 0 0 1 .8-.34h6v-12.91h-20.52z"/><path d="m19.18 7.23h-13.29a1.14 1.14 0 1 1 0-2.23h13.29a1.14 1.14 0 1 1 0 2.28z"/><path d="m19.18 12.52h-13.29a1.14 1.14 0 0 1 0-2.28h13.29a1.14 1.14 0 0 1 0 2.28z"/></g></svg>