<svg height="25.93" viewBox="0 0 185 25.93" width="185" xmlns="http://www.w3.org/2000/svg"><path d="m51 12.93a7.31 7.31 0 1 1 -14.61 0 7.31 7.31 0 1 1 14.61 0zm-3.39 0c0-2.91-1.85-4.4-3.93-4.4s-3.93 1.49-3.93 4.4 1.88 4.45 3.93 4.45 3.92-1.52 3.92-4.45zm5.39 7.07v-19.95h3.31v7.64a5.09 5.09 0 0 1 4.39-2.11c4.22 0 6.5 3.21 6.5 7.35s-2.51 7.49-6.62 7.49a4.87 4.87 0 0 1 -4.34-2.26l-1.88 1.89zm7-11.44c-2.14 0-3.79 1.59-3.79 4.39s1.65 4.46 3.79 4.46 3.79-1.68 3.79-4.46-1.53-4.39-3.79-4.39zm9.5-2.64v14.13h3.33v-14.13zm6 14.13v-20h3.36v20zm32.06-20.05v7.61c-.43-.9-1.68-2-4.14-2-4 0-6.71 3.33-6.71 7.38 0 4.25 2.7 7.46 6.74 7.46a4.7 4.7 0 0 0 4.17-2.2l1.82 1.75h1.39v-2.53-17.47zm-3.7 17.44c-2.29 0-3.79-1.79-3.79-4.48s1.62-4.4 3.82-4.4 3.7 1.68 3.7 4.37-1.53 4.51-3.73 4.51zm-90.36-17.39h4.39l6.11 11.07 6-11.07h4.39v20h-3.5v-14.31l-6.24 11.54h-1.42l-6.23-11.54v14.31h-3.5zm59.33 0h-3.29v3.3h3.29zm52.29 5.87-1.64 1.64c-.43-.9-1.68-2-4.13-2a6.44 6.44 0 0 0 -3.26.86 6.76 6.76 0 0 0 -3.43 6v.55c0 4.25 2.72 7.46 6.77 7.46a4.78 4.78 0 0 0 3.83-1.75v.16c0 2.84-1.31 4.2-3.94 4.22a6 6 0 0 1 -3.92-1.36c-.25-.2-.33-.3-.39-.35l-2.09 2.09c.14.15.22.23.37.37a8.61 8.61 0 0 0 6.08 2.17c5.29 0 7.23-3.5 7.23-7.26v-12.8zm-5.34 11.48c-2.28 0-3.79-1.79-3.79-4.48 0-2.35 1.24-3.95 3-4.32a6.07 6.07 0 0 1 .71 0 4.08 4.08 0 0 1 2.15.61 4.45 4.45 0 0 1 1.52 3.73c.01 2.64-1.37 4.46-3.59 4.46zm-29.29-.33a5.1 5.1 0 0 1 -2 .42 3.86 3.86 0 0 1 -2.58-.88 4.21 4.21 0 0 1 -1.38-2.44h10.19a8.66 8.66 0 0 0 .1-1.06 8.11 8.11 0 0 0 -1.67-5.47 6.36 6.36 0 0 0 -5.06-2.1 7 7 0 0 0 -3.65.94 6.43 6.43 0 0 0 -2.51 2.63 8.17 8.17 0 0 0 -.93 3.89 8.14 8.14 0 0 0 .88 3.86 6.39 6.39 0 0 0 2.5 2.6 7.39 7.39 0 0 0 3.75.92 8 8 0 0 0 3.3-.65 7.46 7.46 0 0 0 2.59-1.86l-1.93-1.93a5 5 0 0 1 -1.6 1.13zm-4.85-7.84a3.47 3.47 0 0 1 2.48-.94 3.28 3.28 0 0 1 2.47 1 3.6 3.6 0 0 1 1 2.54h-7.13a3.83 3.83 0 0 1 1.18-2.6zm52.2 7.84a5.1 5.1 0 0 1 -2 .42 3.86 3.86 0 0 1 -2.58-.88 4.21 4.21 0 0 1 -1.38-2.44h10.23a8.66 8.66 0 0 0 .1-1.06 8.06 8.06 0 0 0 -1.68-5.47 6.32 6.32 0 0 0 -5.05-2.1 7.07 7.07 0 0 0 -3.66.94 6.47 6.47 0 0 0 -2.5 2.63 8.17 8.17 0 0 0 -.89 3.86 8.14 8.14 0 0 0 .88 3.86 6.39 6.39 0 0 0 2.5 2.6 7.39 7.39 0 0 0 3.75.92 8.07 8.07 0 0 0 3.3-.65 7.56 7.56 0 0 0 2.59-1.86l-1.93-1.93a5 5 0 0 1 -1.68 1.16zm-4.84-7.84a3.44 3.44 0 0 1 2.47-.94 3.27 3.27 0 0 1 2.47 1 3.56 3.56 0 0 1 1 2.54h-7.09a3.79 3.79 0 0 1 1.15-2.6z" fill="#fff"/><g fill="#93e019"><path d="m164.46 17.69v2.37h-2.37l-6-6 2.37-2.37zm-153.25-15.29v-2.35h-2.4l-8.81 8.82v2.37l8.81 8.81h2.4v-2.35l-7.65-7.65zm163.19 7.65-7.65 7.65v2.35h2.39l8.86-8.81v-2.38l-8.85-8.81h-2.4v2.35zm-27.58-10h-2.4v2.35l6 6 2.37-2.37zm17.64 2.35v-2.35h-2.39l-17.65 17.65v2.35h2.4z"/><path d="m178.12.72h-1.23v-.72h3.23v.7h-1.23v3.3h-.77zm2.88-.72h.81l1.19 1.92 1.21-1.92h.79v4h-.74v-2.82l-1.26 1.9-1.23-1.9v2.82h-.77z"/></g></svg>