<svg height="23.92" viewBox="0 0 23.76 23.92" width="23.76" xmlns="http://www.w3.org/2000/svg"><g fill="#273c4d"><path d="m18.49 2h-14.2a.29.29 0 0 0 -.3.3v2.24a.29.29 0 0 0 .3.3h14.2a.3.3 0 0 1 .3.3v1.4a.3.3 0 0 0 .47.24l4.37-3.12a.3.3 0 0 0 0-.49l-4.37-3.11a.3.3 0 0 0 -.47.24v1.4a.3.3 0 0 1 -.3.3z" fill-rule="evenodd"/><path d="m5.79 21.92h17.37a.29.29 0 0 0 .3-.3v-2.24a.29.29 0 0 0 -.3-.3h-17.37a.31.31 0 0 1 -.3-.3v-1.4a.3.3 0 0 0 -.49-.24l-4.35 3.12a.3.3 0 0 0 0 .48l4.35 3.12a.3.3 0 0 0 .47-.24v-1.4a.31.31 0 0 1 .32-.3z" fill-rule="evenodd"/><rect height="2.85" rx=".3" width="19.33" x="3.99" y="10.54"/><rect height="2.85" rx="1.42" width="2.85" y="10.54"/><rect height="2.85" rx="1.42" width="2.85" y="2"/></g></svg>